<svg width="72" height="32" viewBox="0 0 72 32" fill="none" xmlns="http://www.w3.org/2000/svg">
<g clip-path="url(#clip0_1_1832)">
<rect width="72" height="32" rx="8" fill="black"/>
<mask id="path-2-inside-1_1_1832" fill="white">
<path d="M14.5675 13.674C14.5163 13.1584 14.2969 12.7578 13.9091 12.4723C13.5213 12.1868 12.995 12.044 12.3303 12.044C11.8786 12.044 11.4972 12.108 11.1861 12.2358C10.875 12.3594 10.6364 12.532 10.4702 12.7536C10.3082 12.9751 10.2273 13.2266 10.2273 13.5078C10.2188 13.7422 10.2678 13.9467 10.3743 14.1214C10.4851 14.2962 10.6364 14.4474 10.8281 14.5753C11.0199 14.6989 11.2415 14.8075 11.4929 14.9013C11.7443 14.9908 12.0128 15.0675 12.2983 15.1314L13.4744 15.4126C14.0455 15.5405 14.5696 15.7109 15.0469 15.924C15.5241 16.1371 15.9375 16.3991 16.2869 16.7102C16.6364 17.0213 16.907 17.3878 17.0987 17.8097C17.2947 18.2315 17.3949 18.7152 17.3991 19.2607C17.3949 20.0618 17.1903 20.7564 16.7855 21.3445C16.3849 21.9283 15.8054 22.3821 15.0469 22.706C14.2926 23.0256 13.3828 23.1854 12.3175 23.1854C11.2607 23.1854 10.3402 23.0234 9.55611 22.6996C8.77628 22.3757 8.1669 21.8963 7.72798 21.2614C7.29332 20.6222 7.06534 19.8317 7.04403 18.8899H9.7223C9.75213 19.3288 9.87784 19.6953 10.0994 19.9893C10.3253 20.2791 10.6257 20.4986 11.0007 20.6477C11.38 20.7926 11.8082 20.8651 12.2855 20.8651C12.7543 20.8651 13.1612 20.7969 13.5064 20.6605C13.8558 20.5241 14.1264 20.3345 14.3182 20.0916C14.5099 19.8487 14.6058 19.5696 14.6058 19.2543C14.6058 18.9602 14.5185 18.7131 14.3438 18.5128C14.1733 18.3125 13.9219 18.142 13.5895 18.0014C13.2614 17.8608 12.8587 17.733 12.3814 17.6179L10.956 17.2599C9.85227 16.9915 8.98082 16.5717 8.34162 16.0007C7.70241 15.4297 7.38494 14.6605 7.3892 13.6932C7.38494 12.9006 7.59588 12.2081 8.02202 11.6158C8.45241 11.0234 9.04261 10.5611 9.79261 10.2287C10.5426 9.89631 11.3949 9.73011 12.3494 9.73011C13.321 9.73011 14.169 9.89631 14.8935 10.2287C15.6222 10.5611 16.1889 11.0234 16.5938 11.6158C16.9986 12.2081 17.2074 12.8942 17.2202 13.674H14.5675ZM19.2608 23V9.90909H24.4256C25.4185 9.90909 26.2644 10.0987 26.9632 10.478C27.6621 10.853 28.1948 11.375 28.5613 12.044C28.932 12.7088 29.1174 13.4759 29.1174 14.3452C29.1174 15.2145 28.9299 15.9815 28.5549 16.6463C28.1799 17.3111 27.6365 17.8288 26.9249 18.1996C26.2175 18.5703 25.361 18.7557 24.3553 18.7557H21.0634V16.5376H23.9078C24.4405 16.5376 24.8794 16.446 25.2246 16.2628C25.574 16.0753 25.834 15.8175 26.0044 15.4893C26.1792 15.157 26.2665 14.7756 26.2665 14.3452C26.2665 13.9105 26.1792 13.5312 26.0044 13.2074C25.834 12.8793 25.574 12.6257 25.2246 12.4467C24.8752 12.2635 24.432 12.1719 23.8951 12.1719H22.0286V23H19.2608ZM31.6598 23H28.6939L33.2131 9.90909H36.7798L41.2926 23H38.3267L35.0476 12.9006H34.9453L31.6598 23ZM31.4744 17.8544H38.4801V20.0149H31.4744V17.8544ZM53.8034 14.4922H51.0037C50.9526 14.13 50.8482 13.8082 50.6905 13.527C50.5328 13.2415 50.3304 12.9986 50.0833 12.7983C49.8361 12.598 49.5506 12.4446 49.2267 12.3381C48.9071 12.2315 48.5598 12.1783 48.1848 12.1783C47.5073 12.1783 46.9171 12.3466 46.4142 12.6832C45.9114 13.0156 45.5215 13.5014 45.2445 14.1406C44.9675 14.7756 44.829 15.5469 44.829 16.4545C44.829 17.3878 44.9675 18.1719 45.2445 18.8068C45.5257 19.4418 45.9178 19.9212 46.4206 20.245C46.9235 20.5689 47.5051 20.7308 48.1657 20.7308C48.5364 20.7308 48.8794 20.6818 49.1948 20.5838C49.5144 20.4858 49.7978 20.343 50.0449 20.1555C50.2921 19.9638 50.4966 19.7315 50.6586 19.4588C50.8248 19.1861 50.9398 18.875 51.0037 18.5256L53.8034 18.5384C53.731 19.1392 53.5499 19.7188 53.2601 20.277C52.9746 20.831 52.589 21.3274 52.1032 21.7663C51.6216 22.201 51.0463 22.5462 50.3773 22.8018C49.7125 23.0533 48.9604 23.179 48.1209 23.179C46.9533 23.179 45.9093 22.9148 44.9888 22.3864C44.0726 21.858 43.3482 21.093 42.8155 20.0916C42.2871 19.0902 42.0229 17.8778 42.0229 16.4545C42.0229 15.027 42.2914 13.8125 42.8283 12.8111C43.3652 11.8097 44.0939 11.0469 45.0144 10.5227C45.9348 9.99432 46.9703 9.73011 48.1209 9.73011C48.8794 9.73011 49.5826 9.83665 50.2303 10.0497C50.8823 10.2628 51.4597 10.5739 51.9625 10.983C52.4654 11.3878 52.8745 11.8842 53.1898 12.4723C53.5094 13.0604 53.714 13.7337 53.8034 14.4922ZM55.7882 23V9.90909H64.6092V12.1911H58.5559V15.3104H64.1554V17.5923H58.5559V20.718H64.6348V23H55.7882Z"/>
</mask>
<path d="M14.5675 13.674L12.0797 13.9207L12.3031 16.174H14.5675V13.674ZM11.1861 12.2358L12.1091 14.5592L12.1227 14.5537L12.1364 14.5481L11.1861 12.2358ZM10.4702 12.7536L8.47017 11.2535L8.46085 11.266L8.45169 11.2785L10.4702 12.7536ZM10.2273 13.5078L12.7256 13.5987L12.7273 13.5533V13.5078H10.2273ZM10.3743 14.1214L8.2398 15.423L8.25125 15.4417L8.26302 15.4603L10.3743 14.1214ZM10.8281 14.5753L9.44137 16.6554L9.45754 16.6662L9.47387 16.6767L10.8281 14.5753ZM11.4929 14.9013L10.6194 17.2437L10.637 17.2503L10.6546 17.2565L11.4929 14.9013ZM12.2983 15.1314L12.8797 12.6999L12.8621 12.6957L12.8445 12.6918L12.2983 15.1314ZM13.4744 15.4126L12.893 17.8441L12.9106 17.8483L12.9283 17.8522L13.4744 15.4126ZM15.0469 15.924L14.0277 18.2069H14.0277L15.0469 15.924ZM16.2869 16.7102L17.9493 14.843L17.9493 14.843L16.2869 16.7102ZM17.0987 17.8097L14.8228 18.8442L14.8271 18.8537L14.8315 18.8631L17.0987 17.8097ZM17.3991 19.2607L19.8991 19.2739L19.8992 19.2575L19.8991 19.2411L17.3991 19.2607ZM16.7855 21.3445L14.7263 19.9269L14.7241 19.9301L16.7855 21.3445ZM15.0469 22.706L16.0223 25.0079L16.0286 25.0052L15.0469 22.706ZM9.55611 22.6996L8.59726 25.0084L8.60171 25.0102L9.55611 22.6996ZM7.72798 21.2614L5.66067 22.6671L5.66606 22.6751L5.67151 22.683L7.72798 21.2614ZM7.04403 18.8899V16.3899H4.48683L4.54467 18.9465L7.04403 18.8899ZM9.7223 18.8899L12.2165 18.7204L12.0582 16.3899H9.7223V18.8899ZM10.0994 19.9893L8.10291 21.494L8.11513 21.5102L8.12761 21.5262L10.0994 19.9893ZM11.0007 20.6477L10.0768 22.9707L10.0926 22.977L10.1085 22.9831L11.0007 20.6477ZM13.5064 20.6605L12.5975 18.3315L12.5878 18.3354L13.5064 20.6605ZM14.3182 20.0916L16.2804 21.6407L16.2804 21.6407L14.3182 20.0916ZM14.3438 18.5128L12.4399 20.1331L12.4498 20.1447L12.4598 20.1562L14.3438 18.5128ZM13.5895 18.0014L12.6047 20.2993L12.6154 20.3038L13.5895 18.0014ZM12.3814 17.6179L11.7725 20.0426L11.784 20.0455L11.7955 20.0483L12.3814 17.6179ZM10.956 17.2599L11.5649 14.8352L11.5559 14.833L11.5468 14.8308L10.956 17.2599ZM8.34162 16.0007L6.67609 17.8651H6.67609L8.34162 16.0007ZM7.3892 13.6932L9.88918 13.7042L9.88923 13.692L9.88917 13.6797L7.3892 13.6932ZM8.02202 11.6158L5.99953 10.1462L5.99263 10.1558L8.02202 11.6158ZM14.8935 10.2287L13.8509 12.5009L13.856 12.5032L14.8935 10.2287ZM16.5938 11.6158L14.5298 13.0264L14.5298 13.0264L16.5938 11.6158ZM17.2202 13.674V16.174H19.7615L19.7198 13.633L17.2202 13.674ZM17.0553 13.4273C16.9402 12.2672 16.3963 11.199 15.3913 10.4591L12.4268 14.4855C12.344 14.4245 12.2466 14.3242 12.172 14.1881C12.0998 14.0562 12.0829 13.9529 12.0797 13.9207L17.0553 13.4273ZM15.3913 10.4591C14.4378 9.75703 13.3298 9.54403 12.3303 9.54403V14.544C12.488 14.544 12.5598 14.5614 12.5691 14.5639C12.5731 14.565 12.5125 14.5486 12.4268 14.4855L15.3913 10.4591ZM12.3303 9.54403C11.658 9.54403 10.9326 9.63711 10.2358 9.92345L12.1364 14.5481C12.0957 14.5648 12.0853 14.5632 12.1187 14.5576C12.1524 14.5519 12.2204 14.544 12.3303 14.544V9.54403ZM10.2631 9.91242C9.6136 10.1704 8.9653 10.5934 8.47017 11.2535L12.4702 14.2536C12.3074 14.4705 12.1364 14.5483 12.1091 14.5592L10.2631 9.91242ZM8.45169 11.2785C7.96866 11.9395 7.72727 12.7103 7.72727 13.5078H12.7273C12.7273 13.6104 12.7119 13.7371 12.6676 13.8746C12.6232 14.0128 12.5589 14.1324 12.4886 14.2286L8.45169 11.2785ZM7.72892 13.417C7.70527 14.0675 7.84232 14.7711 8.2398 15.423L12.5088 12.8199C12.6932 13.1224 12.7322 13.4169 12.7256 13.5987L7.72892 13.417ZM8.26302 15.4603C8.58117 15.962 8.99224 16.356 9.44137 16.6554L12.2149 12.4952C12.2805 12.5389 12.389 12.6303 12.4856 12.7826L8.26302 15.4603ZM9.47387 16.6767C9.84046 16.913 10.2282 17.0978 10.6194 17.2437L12.3664 12.5588C12.2548 12.5172 12.1993 12.4848 12.1824 12.4739L9.47387 16.6767ZM10.6546 17.2565C11.0102 17.3831 11.3769 17.487 11.7521 17.571L12.8445 12.6918C12.6486 12.6479 12.4784 12.5984 12.3312 12.546L10.6546 17.2565ZM11.7169 17.5628L12.893 17.8441L14.0559 12.9812L12.8797 12.6999L11.7169 17.5628ZM12.9283 17.8522C13.3558 17.948 13.7193 18.0692 14.0277 18.2069L16.066 13.6412C15.4199 13.3527 14.7351 13.133 14.0206 12.973L12.9283 17.8522ZM14.0277 18.2069C14.2977 18.3274 14.488 18.4559 14.6246 18.5775L17.9493 14.843C17.387 14.3424 16.7506 13.9468 16.066 13.6412L14.0277 18.2069ZM14.6246 18.5775C14.7163 18.6591 14.7767 18.7427 14.8228 18.8442L19.3746 16.7752C19.0372 16.0328 18.5565 15.3835 17.9493 14.843L14.6246 18.5775ZM14.8315 18.8631C14.8532 18.9098 14.8973 19.031 14.8992 19.2802L19.8991 19.2411C19.8925 18.3994 19.7363 17.5533 19.3659 16.7562L14.8315 18.8631ZM14.8992 19.2474C14.8973 19.6104 14.8126 19.8015 14.7263 19.9269L18.8447 22.762C19.5681 21.7113 19.8925 20.5132 19.8991 19.2739L14.8992 19.2474ZM14.7241 19.9301C14.634 20.0614 14.4605 20.238 14.0652 20.4068L16.0286 25.0052C17.1503 24.5262 18.1359 23.7951 18.8469 22.7589L14.7241 19.9301ZM14.0715 20.4041C13.7034 20.56 13.1438 20.6854 12.3175 20.6854V25.6854C13.6218 25.6854 14.8818 25.4911 16.0222 25.0078L14.0715 20.4041ZM12.3175 20.6854C11.5103 20.6854 10.9275 20.5612 10.5105 20.3889L8.60171 25.0102C9.7529 25.4857 11.011 25.6854 12.3175 25.6854V20.6854ZM10.515 20.3908C10.1353 20.2331 9.92481 20.0428 9.78446 19.8398L5.67151 22.683C6.409 23.7498 7.41725 24.5183 8.59726 25.0084L10.515 20.3908ZM9.7953 19.8556C9.68582 19.6946 9.5562 19.3993 9.54339 18.8334L4.54467 18.9465C4.57448 20.2641 4.90083 21.5497 5.66067 22.6671L9.7953 19.8556ZM7.04403 21.3899H9.7223V16.3899H7.04403V21.3899ZM7.22805 19.0594C7.28427 19.8866 7.53664 20.7426 8.10291 21.494L12.096 18.4847C12.1518 18.5588 12.1856 18.63 12.2037 18.6828C12.2208 18.7326 12.2186 18.7502 12.2165 18.7204L7.22805 19.0594ZM8.12761 21.5262C8.65309 22.2004 9.33066 22.674 10.0768 22.9707L11.9246 18.3247C11.9164 18.3214 11.9353 18.328 11.9688 18.3525C12.0035 18.3778 12.0398 18.4121 12.0712 18.4525L8.12761 21.5262ZM10.1085 22.9831C10.8179 23.2541 11.5558 23.3651 12.2855 23.3651V18.3651C12.0607 18.3651 11.942 18.3311 11.8929 18.3123L10.1085 22.9831ZM12.2855 23.3651C12.9893 23.3651 13.7216 23.2635 14.425 22.9856L12.5878 18.3354C12.6009 18.3302 12.5192 18.3651 12.2855 18.3651V23.3651ZM14.4152 22.9895C15.0911 22.7257 15.7601 22.2998 16.2804 21.6407L12.356 18.5425C12.4928 18.3692 12.6205 18.3226 12.5975 18.3316L14.4152 22.9895ZM16.2804 21.6407C16.8276 20.9476 17.1058 20.1202 17.1058 19.2543H12.1058C12.1058 19.1546 12.1217 19.0271 12.1695 18.8879C12.2175 18.7482 12.2858 18.6314 12.356 18.5425L16.2804 21.6407ZM17.1058 19.2543C17.1058 18.425 16.8428 17.5745 16.2277 16.8694L12.4598 20.1562C12.3427 20.0219 12.2462 19.8596 12.1832 19.6815C12.1215 19.507 12.1058 19.3568 12.1058 19.2543H17.1058ZM16.2476 16.8925C15.7486 16.3061 15.1283 15.9379 14.5636 15.699L12.6154 20.3038C12.6585 20.3221 12.6561 20.3255 12.6244 20.304C12.5919 20.2819 12.5212 20.2286 12.4399 20.1331L16.2476 16.8925ZM14.5743 15.7036C14.0794 15.4915 13.5342 15.3242 12.9673 15.1875L11.7955 20.0483C12.1831 20.1417 12.4433 20.2301 12.6047 20.2993L14.5743 15.7036ZM12.9903 15.1932L11.5649 14.8352L10.3471 19.6847L11.7725 20.0426L12.9903 15.1932ZM11.5468 14.8308C10.7174 14.629 10.2566 14.3591 10.0072 14.1363L6.67609 17.8651C7.70505 18.7843 8.9872 19.3539 10.3651 19.6891L11.5468 14.8308ZM10.0072 14.1363C9.95984 14.094 9.94561 14.0674 9.93501 14.0418C9.92135 14.0087 9.88827 13.9101 9.88918 13.7042L4.88923 13.6822C4.88227 15.2629 5.4312 16.753 6.67609 17.8651L10.0072 14.1363ZM9.88917 13.6797C9.88749 13.3676 9.9609 13.2016 10.0514 13.0758L5.99263 10.1558C5.23086 11.2146 4.8824 12.4336 4.88924 13.7066L9.88917 13.6797ZM10.0445 13.0853C10.186 12.8906 10.4085 12.6903 10.8055 12.5143L8.77968 7.94309C7.67673 8.4319 6.71883 9.1563 5.99955 10.1462L10.0445 13.0853ZM10.8055 12.5143C11.1886 12.3445 11.6872 12.2301 12.3494 12.2301V7.23011C11.1026 7.23011 9.89662 7.44809 8.77968 7.94309L10.8055 12.5143ZM12.3494 12.2301C13.0383 12.2301 13.5171 12.3478 13.8509 12.5009L15.936 7.95645C14.821 7.44484 13.6037 7.23011 12.3494 7.23011V12.2301ZM13.856 12.5032C14.2197 12.6692 14.4111 12.8527 14.5298 13.0264L18.6577 10.2051C17.9668 9.19414 17.0246 8.453 15.931 7.95415L13.856 12.5032ZM14.5298 13.0264C14.6343 13.1794 14.715 13.38 14.7205 13.715L19.7198 13.633C19.6998 12.4083 19.3628 11.2367 18.6577 10.2051L14.5298 13.0264ZM17.2202 11.174H14.5675V16.174H17.2202V11.174ZM19.2608 23H16.7608V25.5H19.2608V23ZM19.2608 9.90909V7.40909H16.7608V9.90909H19.2608ZM26.9632 10.478L25.7708 12.6753L25.7812 12.6809L26.9632 10.478ZM28.5613 12.044L26.3687 13.2451L26.3732 13.2534L26.3778 13.2617L28.5613 12.044ZM26.9249 18.1996L25.7698 15.9824L25.7644 15.9853L26.9249 18.1996ZM21.0634 18.7557H18.5634V21.2557H21.0634V18.7557ZM21.0634 16.5376V14.0376H18.5634V16.5376H21.0634ZM25.2246 16.2628L26.3968 18.4709L26.4067 18.4657L25.2246 16.2628ZM26.0044 15.4893L23.7915 14.3261L23.7859 14.3369L26.0044 15.4893ZM26.0044 13.2074L23.7859 14.3599L23.7949 14.3772L23.8042 14.3944L26.0044 13.2074ZM25.2246 12.4467L24.0636 14.6608L24.0742 14.6664L24.0849 14.6718L25.2246 12.4467ZM22.0286 12.1719V9.67188H19.5286V12.1719H22.0286ZM22.0286 23V25.5H24.5286V23H22.0286ZM21.7608 23V9.90909H16.7608V23H21.7608ZM19.2608 12.4091H24.4256V7.40909H19.2608V12.4091ZM24.4256 12.4091C25.1039 12.4091 25.5181 12.5382 25.7708 12.6753L28.1557 8.28069C27.0106 7.65928 25.7331 7.40909 24.4256 7.40909V12.4091ZM25.7812 12.6809C26.0712 12.8365 26.2444 13.0183 26.3687 13.2451L30.7539 10.843C30.1451 9.73171 29.2531 8.8695 28.1453 8.27508L25.7812 12.6809ZM26.3778 13.2617C26.513 13.5041 26.6174 13.8407 26.6174 14.3452H31.6174C31.6174 13.111 31.351 11.9135 30.7447 10.8264L26.3778 13.2617ZM26.6174 14.3452C26.6174 14.8448 26.513 15.1776 26.3774 15.418L30.7323 17.8746C31.3467 16.7854 31.6174 15.5842 31.6174 14.3452H26.6174ZM26.3774 15.418C26.2528 15.6389 26.0753 15.8233 25.7698 15.9824L28.0799 20.4167C29.1978 19.8344 30.1069 18.9833 30.7323 17.8746L26.3774 15.418ZM25.7644 15.9853C25.496 16.1259 25.0592 16.2557 24.3553 16.2557V21.2557C25.6627 21.2557 26.939 21.0147 28.0854 20.4139L25.7644 15.9853ZM24.3553 16.2557H21.0634V21.2557H24.3553V16.2557ZM23.5634 18.7557V16.5376H18.5634V18.7557H23.5634ZM21.0634 19.0376H23.9078V14.0376H21.0634V19.0376ZM23.9078 19.0376C24.7079 19.0376 25.5836 18.9027 26.3968 18.4709L24.0524 14.0546C24.1159 14.0209 24.1478 14.0171 24.1257 14.0217C24.1021 14.0266 24.0336 14.0376 23.9078 14.0376V19.0376ZM26.4067 18.4657C27.1656 18.0584 27.8035 17.4493 28.223 16.6418L23.7859 14.3369C23.819 14.2733 23.8653 14.2092 23.9212 14.1538C23.976 14.0994 24.0224 14.0707 24.0426 14.0599L26.4067 18.4657ZM28.2174 16.6525C28.6066 15.9121 28.7665 15.1212 28.7665 14.3452H23.7665C23.7665 14.391 23.7619 14.4054 23.7641 14.3958C23.7652 14.3912 23.7676 14.382 23.7723 14.3692C23.777 14.3564 23.7833 14.3417 23.7915 14.3261L28.2174 16.6525ZM28.7665 14.3452C28.7665 13.5712 28.609 12.7698 28.2047 12.0204L23.8042 14.3944C23.7922 14.3722 23.7831 14.3516 23.7765 14.3338C23.7699 14.3161 23.7664 14.3031 23.7648 14.2959C23.7615 14.2815 23.7665 14.2951 23.7665 14.3452H28.7665ZM28.223 12.0549C27.7978 11.2366 27.1458 10.6219 26.3643 10.2216L24.0849 14.6718C24.055 14.6565 23.999 14.6222 23.936 14.5608C23.8719 14.4983 23.8211 14.4276 23.7859 14.3599L28.223 12.0549ZM26.3856 10.2327C25.5724 9.80623 24.6974 9.67188 23.8951 9.67188V14.6719C24.024 14.6719 24.0963 14.6831 24.124 14.6888C24.1503 14.6942 24.1229 14.6919 24.0636 14.6608L26.3856 10.2327ZM23.8951 9.67188H22.0286V14.6719H23.8951V9.67188ZM19.5286 12.1719V23H24.5286V12.1719H19.5286ZM22.0286 20.5H19.2608V25.5H22.0286V20.5ZM31.6598 23V25.5H33.4755L34.0372 23.7734L31.6598 23ZM28.6939 23L26.3307 22.1842L25.1861 25.5H28.6939V23ZM33.2131 9.90909V7.40909H31.4313L30.8499 9.0933L33.2131 9.90909ZM36.7798 9.90909L39.1433 9.09433L38.5624 7.40909H36.7798V9.90909ZM41.2926 23V25.5H44.7988L43.6561 22.1852L41.2926 23ZM38.3267 23L35.9489 23.772L36.5099 25.5H38.3267V23ZM35.0476 12.9006L37.4254 12.1285L36.8643 10.4006H35.0476V12.9006ZM34.9453 12.9006V10.4006H33.1296L32.5679 12.1272L34.9453 12.9006ZM31.4744 17.8544V15.3544H28.9744V17.8544H31.4744ZM38.4801 17.8544H40.9801V15.3544H38.4801V17.8544ZM38.4801 20.0149V22.5149H40.9801V20.0149H38.4801ZM31.4744 20.0149H28.9744V22.5149H31.4744V20.0149ZM31.6598 20.5H28.6939V25.5H31.6598V20.5ZM31.057 23.8158L35.5762 10.7249L30.8499 9.0933L26.3307 22.1842L31.057 23.8158ZM33.2131 12.4091H36.7798V7.40909H33.2131V12.4091ZM34.4163 10.7239L38.9291 23.8148L43.6561 22.1852L39.1433 9.09433L34.4163 10.7239ZM41.2926 20.5H38.3267V25.5H41.2926V20.5ZM40.7045 22.228L37.4254 12.1285L32.6698 13.6726L35.9489 23.772L40.7045 22.228ZM35.0476 10.4006H34.9453V15.4006H35.0476V10.4006ZM32.5679 12.1272L29.2824 22.2266L34.0372 23.7734L37.3227 13.674L32.5679 12.1272ZM31.4744 20.3544H38.4801V15.3544H31.4744V20.3544ZM35.9801 17.8544V20.0149H40.9801V17.8544H35.9801ZM38.4801 17.5149H31.4744V22.5149H38.4801V17.5149ZM33.9744 20.0149V17.8544H28.9744V20.0149H33.9744ZM53.8034 14.4922V16.9922H56.6157L56.2862 14.1993L53.8034 14.4922ZM51.0037 14.4922L48.5283 14.8417L48.8319 16.9922H51.0037V14.4922ZM50.6905 13.527L48.502 14.7355L48.5059 14.7425L48.5098 14.7495L50.6905 13.527ZM50.0833 12.7983L48.5093 14.7406L48.5093 14.7406L50.0833 12.7983ZM49.2267 12.3381L48.4362 14.7098L48.4456 14.7129L49.2267 12.3381ZM46.4142 12.6832L47.7928 14.7688L47.799 14.7647L47.805 14.7607L46.4142 12.6832ZM45.2445 14.1406L47.536 15.1403L47.5384 15.1346L45.2445 14.1406ZM45.2445 18.8068L42.953 19.8065L42.9587 19.8193L45.2445 18.8068ZM46.4206 20.245L45.0669 22.3468H45.0669L46.4206 20.245ZM49.1948 20.5838L48.4618 18.1937L48.4528 18.1965L49.1948 20.5838ZM50.0449 20.1555L51.5559 22.1473L51.5667 22.1391L51.5774 22.1308L50.0449 20.1555ZM50.6586 19.4588L48.5237 18.1579L48.5162 18.1701L48.5089 18.1825L50.6586 19.4588ZM51.0037 18.5256L51.0151 16.0256L48.9213 16.016L48.5445 18.0757L51.0037 18.5256ZM53.8034 18.5384L56.2855 18.8376L56.6214 16.0512L53.8149 16.0384L53.8034 18.5384ZM53.2601 20.277L51.0412 19.1252L51.0379 19.1317L53.2601 20.277ZM52.1032 21.7663L53.7783 23.6221L53.7792 23.6213L52.1032 21.7663ZM50.3773 22.8018L51.2617 25.1402L51.2698 25.1371L50.3773 22.8018ZM44.9888 22.3864L43.7398 24.552L43.7441 24.5545L44.9888 22.3864ZM42.8155 20.0916L40.6044 21.2583L40.6083 21.2657L42.8155 20.0916ZM42.8283 12.8111L45.0316 13.9924V13.9924L42.8283 12.8111ZM45.0144 10.5227L46.2515 12.6952L46.2591 12.6909L45.0144 10.5227ZM50.2303 10.0497L49.4491 12.4245L49.4537 12.426L50.2303 10.0497ZM51.9625 10.983L50.3848 12.9223L50.3948 12.9303L51.9625 10.983ZM53.1898 12.4723L50.9865 13.6538L50.9932 13.6661L53.1898 12.4723ZM53.8034 11.9922H51.0037V16.9922H53.8034V11.9922ZM53.4792 14.1427C53.3905 13.5147 53.1994 12.8898 52.8712 12.3045L48.5098 14.7495C48.5044 14.7399 48.5052 14.7388 48.5091 14.7509C48.5132 14.7635 48.5213 14.7923 48.5283 14.8417L53.4792 14.1427ZM52.879 12.3184C52.5697 11.7583 52.1609 11.2641 51.6572 10.856L48.5093 14.7406C48.5086 14.7401 48.5072 14.7388 48.5052 14.7369C48.5032 14.7349 48.5014 14.7329 48.4999 14.7311C48.4984 14.7293 48.4978 14.7284 48.498 14.7287C48.4982 14.729 48.4996 14.7311 48.502 14.7355L52.879 12.3184ZM51.6572 10.856C51.1578 10.4513 50.5993 10.1578 50.0079 9.96325L48.4456 14.7129C48.4758 14.7228 48.4929 14.7312 48.5005 14.7353C48.5044 14.7374 48.5068 14.7389 48.5078 14.7396C48.5089 14.7402 48.5093 14.7406 48.5093 14.7406L51.6572 10.856ZM50.0173 9.96636C49.4157 9.76583 48.7984 9.67827 48.1848 9.67827V14.6783C48.3213 14.6783 48.3986 14.6972 48.4362 14.7098L50.0173 9.96636ZM48.1848 9.67827C47.0735 9.67827 45.986 9.96136 45.0234 10.6058L47.805 14.7607C47.8481 14.7318 47.9411 14.6783 48.1848 14.6783V9.67827ZM45.0357 10.5977C44.0683 11.2371 43.3896 12.1335 42.9506 13.1466L47.5384 15.1346C47.6533 14.8694 47.7545 14.7941 47.7928 14.7688L45.0357 10.5977ZM42.953 13.141C42.5029 14.1728 42.329 15.3046 42.329 16.4545H47.329C47.329 15.7891 47.4321 15.3783 47.5359 15.1403L42.953 13.141ZM42.329 16.4545C42.329 17.619 42.4996 18.767 42.953 19.8064L47.5359 17.8072C47.4354 17.5767 47.329 17.1566 47.329 16.4545H42.329ZM42.9587 19.8193C43.405 20.827 44.0909 21.7182 45.0669 22.3468L47.7743 18.1432C47.7447 18.1241 47.6464 18.0565 47.5303 17.7943L42.9587 19.8193ZM45.0669 22.3468C46.015 22.9574 47.077 23.2308 48.1657 23.2308V18.2308C47.9333 18.2308 47.832 18.1804 47.7743 18.1432L45.0669 22.3468ZM48.1657 23.2308C48.7576 23.2308 49.3538 23.1524 49.9368 22.9712L48.4528 18.1965C48.4051 18.2113 48.3152 18.2308 48.1657 18.2308V23.2308ZM49.9278 22.9739C50.5062 22.7965 51.0573 22.5255 51.5559 22.1473L48.534 18.1638C48.5338 18.1639 48.5331 18.1644 48.5316 18.1654C48.53 18.1664 48.5271 18.1681 48.5223 18.1705C48.513 18.1752 48.494 18.1838 48.4618 18.1937L49.9278 22.9739ZM51.5774 22.1308C52.0758 21.7441 52.4885 21.2736 52.8082 20.7352L48.5089 18.1825C48.5069 18.1858 48.5058 18.1873 48.5058 18.1874C48.5058 18.1874 48.5064 18.1866 48.5076 18.1852C48.5088 18.1838 48.5101 18.1825 48.5113 18.1814C48.5125 18.1802 48.513 18.1799 48.5124 18.1803L51.5774 22.1308ZM52.7934 20.7597C53.1358 20.1978 53.3501 19.5923 53.4629 18.9754L48.5445 18.0757C48.5368 18.1182 48.5287 18.1429 48.5247 18.1537C48.5209 18.1641 48.5199 18.1642 48.5237 18.1579L52.7934 20.7597ZM50.9923 21.0255L53.792 21.0383L53.8149 16.0384L51.0151 16.0256L50.9923 21.0255ZM51.3214 18.2391C51.2863 18.5307 51.1984 18.8225 51.0412 19.1252L55.479 21.4288C55.9014 20.615 56.1757 19.7477 56.2855 18.8376L51.3214 18.2391ZM51.0379 19.1317C50.8971 19.4048 50.7011 19.6639 50.4272 19.9113L53.7792 23.6213C54.4769 22.991 55.0521 22.2571 55.4823 21.4223L51.0379 19.1317ZM50.428 19.9106C50.1982 20.118 49.8956 20.3096 49.4848 20.4666L51.2698 25.1371C52.1971 24.7827 53.045 24.284 53.7783 23.6221L50.428 19.9106ZM49.4929 20.4635C49.1569 20.5906 48.7118 20.679 48.1209 20.679V25.679C49.209 25.679 50.2682 25.5159 51.2617 25.1402L49.4929 20.4635ZM48.1209 20.679C47.3452 20.679 46.738 20.5079 46.2335 20.2182L43.7441 24.5545C45.0805 25.3217 46.5614 25.679 48.1209 25.679V20.679ZM46.2378 20.2207C45.7573 19.9436 45.3519 19.5364 45.0227 18.9176L40.6083 21.2657C41.3445 22.6497 42.388 23.7723 43.7398 24.552L46.2378 20.2207ZM45.0266 18.9249C44.7305 18.3639 44.5229 17.5735 44.5229 16.4545H39.5229C39.5229 18.1821 39.8437 19.8165 40.6045 21.2583L45.0266 18.9249ZM44.5229 16.4545C44.5229 15.3356 44.7331 14.5491 45.0316 13.9924L40.625 11.6297C39.8496 13.0759 39.5229 14.7184 39.5229 16.4545H44.5229ZM45.0316 13.9924C45.363 13.3743 45.7699 12.9694 46.2515 12.6952L43.7773 8.35026C42.418 9.12432 41.3675 10.2451 40.625 11.6297L45.0316 13.9924ZM46.2591 12.6909C46.7692 12.398 47.3693 12.2301 48.1209 12.2301V7.23011C46.5714 7.23011 45.1005 7.59064 43.7697 8.35459L46.2591 12.6909ZM48.1209 12.2301C48.6436 12.2301 49.0801 12.3031 49.4491 12.4245L51.0115 7.6749C50.085 7.37015 49.1153 7.23011 48.1209 7.23011V12.2301ZM49.4537 12.426C49.8312 12.5494 50.1335 12.7178 50.3848 12.9222L53.5403 9.04367C52.7858 8.42992 51.9333 7.97615 51.0069 7.67339L49.4537 12.426ZM50.3948 12.9303C50.6278 13.1179 50.8241 13.3508 50.9866 13.6537L55.393 11.2909C54.9248 10.4176 54.303 9.65769 53.5303 9.03562L50.3948 12.9303ZM50.9932 13.6661C51.1411 13.9382 51.2632 14.2981 51.3207 14.7851L56.2862 14.1993C56.1647 13.1692 55.8777 12.1825 55.3864 11.2785L50.9932 13.6661ZM55.7882 23H53.2882V25.5H55.7882V23ZM55.7882 9.90909V7.40909H53.2882V9.90909H55.7882ZM64.6092 9.90909H67.1092V7.40909H64.6092V9.90909ZM64.6092 12.1911V14.6911H67.1092V12.1911H64.6092ZM58.5559 12.1911V9.69105H56.0559V12.1911H58.5559ZM58.5559 15.3104H56.0559V17.8104H58.5559V15.3104ZM64.1554 15.3104H66.6554V12.8104H64.1554V15.3104ZM64.1554 17.5923V20.0923H66.6554V17.5923H64.1554ZM58.5559 17.5923V15.0923H56.0559V17.5923H58.5559ZM58.5559 20.718H56.0559V23.218H58.5559V20.718ZM64.6348 20.718H67.1348V18.218H64.6348V20.718ZM64.6348 23V25.5H67.1348V23H64.6348ZM58.2882 23V9.90909H53.2882V23H58.2882ZM55.7882 12.4091H64.6092V7.40909H55.7882V12.4091ZM62.1092 9.90909V12.1911H67.1092V9.90909H62.1092ZM64.6092 9.69105H58.5559V14.6911H64.6092V9.69105ZM56.0559 12.1911V15.3104H61.0559V12.1911H56.0559ZM58.5559 17.8104H64.1554V12.8104H58.5559V17.8104ZM61.6554 15.3104V17.5923H66.6554V15.3104H61.6554ZM64.1554 15.0923H58.5559V20.0923H64.1554V15.0923ZM56.0559 17.5923V20.718H61.0559V17.5923H56.0559ZM58.5559 23.218H64.6348V18.218H58.5559V23.218ZM62.1348 20.718V23H67.1348V20.718H62.1348ZM64.6348 20.5H55.7882V25.5H64.6348V20.5Z" fill="white" mask="url(#path-2-inside-1_1_1832)"/>
</g>
<defs>
<clipPath id="clip0_1_1832">
<rect width="72" height="32" fill="white"/>
</clipPath>
</defs>
</svg>
